<svg xmlns="http://www.w3.org/2000/svg" xmlns:xlink="http://www.w3.org/1999/xlink" version="1.1" x="0px" y="0px" viewBox="0 0 30.661 38.3275" style="enable-background:new 0 0 30.661 30.662;" xml:space="preserve"><g><path d="M15.33,0C6.876,0,0,6.877,0,15.331c0,8.453,6.876,15.331,15.33,15.331c8.453,0,15.331-6.878,15.331-15.331   C30.661,6.877,23.783,0,15.33,0z M16.9,28.2l-2.183-2.746c-0.124-0.154-0.305-0.305-0.502-0.441   c2.012-1.717,3.642-4.547,4.284-5.757c0.165,0.043,0.332,0.065,0.495,0.031l4.101-0.854c0.047-0.01,0.087-0.038,0.133-0.055   c0.563,0.789,1.563,2.298,2.114,3.712l-1.394,2.911C22.024,26.721,19.591,27.875,16.9,28.2z M11.343,3.251l5.034,0.683   c0.174,0.024,0.373,0.002,0.579-0.034l2.309,5.427c-0.092,0.052-0.183,0.105-0.254,0.18l-2.874,2.997   c-0.093,0.097-0.168,0.216-0.229,0.346l-8.525-1.304c-0.018-0.083-0.031-0.172-0.059-0.244l-0.92-2.418   C6.386,8.834,6.35,8.804,6.326,8.762C8.039,5.704,10.597,3.772,11.343,3.251z M5.354,17.039l1.899-4.008   c0.073-0.15,0.117-0.337,0.148-0.532l8.381,1.282c0.015,0.094,0.025,0.188,0.06,0.272l1.874,4.555   c0.008,0.017,0.023,0.031,0.033,0.049c-0.574,1.094-2.372,4.304-4.483,5.909c-0.02-0.006-0.041-0.016-0.061-0.02l-4.164-0.76   c-2.424-1.962-3.523-5.429-3.83-6.561C5.264,17.169,5.318,17.116,5.354,17.039z M26.018,21.266   c-0.632-1.422-1.573-2.813-2.088-3.527c0.068-0.139,0.116-0.285,0.122-0.436l0.168-4.769c0.006-0.126-0.015-0.257-0.048-0.391   c0.755-0.421,2.011-1.193,2.972-2.152c0.738,1.631,1.162,3.435,1.162,5.34c0,1.813-0.377,3.541-1.052,5.108L26.018,21.266z    M26.701,9.092c-0.881,0.977-2.228,1.805-2.998,2.232c-0.08-0.082-0.164-0.162-0.256-0.216l-2.979-1.796   c-0.066-0.04-0.146-0.058-0.222-0.082l-2.412-5.668c0.062-0.04,0.132-0.075,0.184-0.121l0.405-0.35   c0.117-0.105,0.176-0.203,0.207-0.295C22.098,3.712,25.007,6.017,26.701,9.092z M8.746,4.17C7.66,5.202,6.396,6.652,5.404,8.487   C5.366,8.505,5.328,8.509,5.291,8.534L3.695,9.623C4.815,7.35,6.576,5.455,8.746,4.17z M2.381,15.833l1.835,1.469   c0.015,0.011,0.031,0.012,0.046,0.023c0.257,1.026,1.316,4.658,3.865,6.929c-0.021,0.088-0.042,0.179-0.033,0.281l0.148,1.652   C4.835,23.952,2.549,20.162,2.381,15.833z"/></g></svg>